<svg width="40" height="40" viewBox="0 0 40 40" fill="none" xmlns="http://www.w3.org/2000/svg">
<mask id="mask0_749_2455" style="mask-type:luminance" maskUnits="userSpaceOnUse" x="0" y="0" width="40" height="40">
<path fill-rule="evenodd" clip-rule="evenodd" d="M40 12.4576C40 11.9828 40.0002 11.5079 39.9973 11.033C39.9949 10.6329 39.9903 10.233 39.9794 9.83312C39.9559 8.96162 39.9045 8.08264 39.7495 7.22085C39.5923 6.34663 39.3356 5.53299 38.9311 4.73867C38.5335 3.95795 38.014 3.24353 37.3942 2.62417C36.7745 2.0048 36.0599 1.48567 35.2789 1.08825C34.4838 0.683638 33.6693 0.427037 32.7941 0.269902C31.9322 0.115145 31.053 0.0638347 30.1815 0.0402911C29.7813 0.0294659 29.3812 0.0249028 28.9809 0.0224271C28.5058 0.0195145 28.0307 0.0197572 27.5555 0.0197572L22.0387 0H17.9125L12.4933 0.0197572C12.0172 0.0197572 11.5411 0.0195145 11.0651 0.0224271C10.664 0.0249028 10.2631 0.0294659 9.86221 0.0402911C8.98867 0.0638347 8.10746 0.115194 7.24354 0.270145C6.36719 0.427231 5.55146 0.683735 4.75526 1.08805C3.97259 1.48553 3.25643 2.0047 2.63547 2.62417C2.0146 3.24348 1.49416 3.95775 1.09577 4.73833C0.69014 5.53304 0.432958 6.34716 0.275386 7.22187C0.120242 8.08332 0.0688344 8.96201 0.0451938 9.83312C0.0344172 10.233 0.0297571 10.633 0.0273299 11.033C0.0244173 11.5079 0 12.0979 0 12.5728L0.00014563 17.9169L0 22.0873L0.02466 27.545C0.02466 28.0205 0.0244658 28.4961 0.0273299 28.9716C0.0297571 29.3722 0.0344172 29.7727 0.0452424 30.1731C0.0688344 31.0457 0.120339 31.926 0.275629 32.7889C0.433152 33.6643 0.690286 34.4791 1.09557 35.2744C1.49402 36.0563 2.01455 36.7716 2.63547 37.3919C3.25638 38.0121 3.97235 38.5319 4.75487 38.9299C5.55156 39.335 6.36767 39.592 7.24456 39.7493C8.1081 39.9043 8.98901 39.9557 9.86221 39.9793C10.2631 39.9901 10.664 39.9947 11.0651 39.9971C11.5412 40 12.0172 39.9999 12.4933 39.9999L17.9615 40H22.0979L27.5555 39.9998C28.0307 39.9998 28.5058 40 28.9809 39.9971C29.3812 39.9947 29.7813 39.9901 30.1815 39.9793C31.0533 39.9557 31.9328 39.9042 32.7951 39.7491C33.6698 39.5918 34.4839 39.335 35.2786 38.9301C36.0597 38.5321 36.7745 38.0122 37.3942 37.3919C38.0139 36.7717 38.5333 36.0565 38.931 35.2748C39.3357 34.479 39.5924 33.6639 39.7497 32.7879C39.9046 31.9253 39.9559 31.0454 39.9795 30.1731C39.9903 29.7726 39.9949 29.3721 39.9973 28.9716C40.0002 28.4961 40 28.0205 40 27.545C40 27.545 39.9997 22.1837 39.9997 22.0873V17.9126C39.9997 17.8414 40 12.4576 40 12.4576Z" fill="white"/>
</mask>
<g mask="url(#mask0_749_2455)">
<rect x="-2.81641" y="-3.00977" width="44.3689" height="44.3689" fill="#373737"/>
<rect x="-2.81641" y="-3.00977" width="44.3689" height="44.3689" fill="#D9D9D9" fill-opacity="0.01"/>
<g filter="url(#filter0_ii_749_2455)">
<path fill-rule="evenodd" clip-rule="evenodd" d="M40 12.4576C40 11.9828 40.0002 11.5079 39.9973 11.033C39.9949 10.6329 39.9903 10.233 39.9794 9.83312C39.9559 8.96162 39.9045 8.08264 39.7495 7.22085C39.5923 6.34663 39.3356 5.53299 38.9311 4.73867C38.5335 3.95795 38.014 3.24353 37.3942 2.62417C36.7745 2.0048 36.0599 1.48567 35.2789 1.08825C34.4838 0.683638 33.6693 0.427037 32.7941 0.269902C31.9322 0.115145 31.053 0.0638347 30.1815 0.0402911C29.7813 0.0294659 29.3812 0.0249028 28.981 0.0224271C28.5058 0.0195145 28.0307 0.0197572 27.5555 0.0197572L22.0387 0H17.9125L12.4933 0.0197572C12.0172 0.0197572 11.5411 0.0195145 11.0651 0.0224271C10.664 0.0249028 10.2631 0.0294659 9.86221 0.0402911C8.98867 0.0638347 8.10746 0.115194 7.24354 0.270145C6.36719 0.427231 5.55146 0.683735 4.75526 1.08805C3.97259 1.48553 3.25643 2.0047 2.63547 2.62417C2.0146 3.24348 1.49416 3.95775 1.09577 4.73833C0.690141 5.53304 0.432958 6.34716 0.275386 7.22187C0.120242 8.08332 0.0688344 8.96201 0.0451938 9.83312C0.0344172 10.233 0.0297571 10.633 0.0273299 11.033C0.0244173 11.5079 0 12.0979 0 12.5728L0.00014563 17.9169L0 22.0873L0.02466 27.545C0.02466 28.0205 0.0244658 28.4961 0.0273299 28.9716C0.0297571 29.3722 0.0344172 29.7727 0.0452424 30.1731C0.0688344 31.0457 0.120339 31.926 0.275629 32.7889C0.433152 33.6643 0.690286 34.4791 1.09557 35.2744C1.49402 36.0563 2.01455 36.7716 2.63547 37.3919C3.25638 38.0121 3.97235 38.5319 4.75487 38.9299C5.55156 39.335 6.36767 39.592 7.24456 39.7493C8.1081 39.9043 8.98901 39.9557 9.86221 39.9793C10.2631 39.9901 10.664 39.9947 11.0651 39.9971C11.5412 40 12.0172 39.9999 12.4933 39.9999L17.9615 40H22.0979L27.5555 39.9998C28.0307 39.9998 28.5058 40 28.981 39.9971C29.3812 39.9947 29.7813 39.9901 30.1815 39.9793C31.0533 39.9557 31.9328 39.9042 32.7951 39.7491C33.6698 39.5918 34.4839 39.335 35.2786 38.9301C36.0597 38.5321 36.7745 38.0122 37.3942 37.3919C38.0139 36.7717 38.5333 36.0565 38.931 35.2748C39.3357 34.479 39.5924 33.6639 39.7497 32.7879C39.9046 31.9253 39.9559 31.0454 39.9795 30.1731C39.9903 29.7726 39.9949 29.3721 39.9973 28.9716C40.0002 28.4961 40 28.0205 40 27.545C40 27.545 39.9997 22.1837 39.9997 22.0873V17.9126C39.9997 17.8414 40 12.4576 40 12.4576Z" fill="url(#paint0_linear_749_2455)" fill-opacity="0.01"/>
</g>
<path d="M7.83601 18.3872C7.83601 16.9779 8.97846 15.8355 10.3877 15.8355C11.797 15.8355 12.9395 16.9779 12.9395 18.3872V29.8189C12.9395 31.2282 11.797 32.3707 10.3877 32.3707C8.97846 32.3707 7.83601 31.2282 7.83601 29.8189V18.3872ZM7.42773 10.6299C7.42773 9.81337 7.71126 9.12157 8.27831 8.55452C8.86804 7.96479 9.57119 7.66992 10.3877 7.66992C11.2043 7.66992 11.8961 7.96479 12.4631 8.55452C13.0529 9.12157 13.3477 9.81337 13.3477 10.6299C13.3477 11.4465 13.0529 12.1496 12.4631 12.7394C11.8961 13.3064 11.2043 13.5899 10.3877 13.5899C9.57119 13.5899 8.86804 13.3064 8.27831 12.7394C7.71126 12.1496 7.42773 11.4465 7.42773 10.6299Z" fill="#D3DEE3"/>
<path d="M16.606 18.2851C16.606 16.9322 17.7027 15.8355 19.0556 15.8355H20.3825C21.0026 15.8355 21.5053 16.3381 21.5053 16.9582V18.0389C21.5053 18.0621 21.5241 18.081 21.5474 18.081C21.5633 18.081 21.5778 18.072 21.5851 18.0578C21.7432 17.748 21.9661 17.4382 22.2538 17.1283C22.5487 16.8108 22.9003 16.5273 23.3085 16.2778C23.7168 16.0283 24.1818 15.8241 24.7035 15.6653C25.2252 15.5066 25.7922 15.4272 26.4046 15.4272C27.6975 15.4272 28.7409 15.6313 29.5347 16.0396C30.3286 16.4252 30.941 16.9696 31.372 17.6727C31.8256 18.3758 32.1318 19.2037 32.2906 20.1564C32.4494 21.109 32.5288 22.1411 32.5288 23.2525V29.8189C32.5288 31.2282 31.3863 32.3707 29.977 32.3707C28.5678 32.3707 27.4253 31.2282 27.4253 29.8189V24.2732C27.4253 23.7969 27.4026 23.3092 27.3573 22.8102C27.3346 22.2885 27.2325 21.8122 27.0511 21.3812C26.8923 20.9503 26.6314 20.5987 26.2685 20.3265C25.9283 20.0543 25.4293 19.9182 24.7715 19.9182C24.1137 19.9182 23.5807 20.043 23.1724 20.2925C22.7642 20.5193 22.4466 20.8368 22.2198 21.2451C22.0157 21.6307 21.8796 22.073 21.8115 22.572C21.7435 23.071 21.7094 23.5927 21.7094 24.1371V29.8189C21.7094 31.2282 20.567 32.3707 19.1577 32.3707C17.7484 32.3707 16.606 31.2282 16.606 29.8189V18.2851Z" fill="#D3DEE3"/>
</g>
<defs>
<filter id="filter0_ii_749_2455" x="0" y="-20" width="40" height="74" filterUnits="userSpaceOnUse" color-interpolation-filters="sRGB">
<feFlood flood-opacity="0" result="BackgroundImageFix"/>
<feBlend mode="normal" in="SourceGraphic" in2="BackgroundImageFix" result="shape"/>
<feColorMatrix in="SourceAlpha" type="matrix" values="0 0 0 0 0 0 0 0 0 0 0 0 0 0 0 0 0 0 127 0" result="hardAlpha"/>
<feOffset dy="-20"/>
<feGaussianBlur stdDeviation="20"/>
<feComposite in2="hardAlpha" operator="arithmetic" k2="-1" k3="1"/>
<feColorMatrix type="matrix" values="0 0 0 0 0 0 0 0 0 0 0 0 0 0 0 0 0 0 0.3 0"/>
<feBlend mode="normal" in2="shape" result="effect1_innerShadow_749_2455"/>
<feColorMatrix in="SourceAlpha" type="matrix" values="0 0 0 0 0 0 0 0 0 0 0 0 0 0 0 0 0 0 127 0" result="hardAlpha"/>
<feOffset dy="14"/>
<feGaussianBlur stdDeviation="32"/>
<feComposite in2="hardAlpha" operator="arithmetic" k2="-1" k3="1"/>
<feColorMatrix type="matrix" values="0 0 0 0 1 0 0 0 0 1 0 0 0 0 1 0 0 0 0.15 0"/>
<feBlend mode="normal" in2="effect1_innerShadow_749_2455" result="effect2_innerShadow_749_2455"/>
</filter>
<linearGradient id="paint0_linear_749_2455" x1="-13.6476" y1="0" x2="-13.6476" y2="67.2952" gradientUnits="userSpaceOnUse">
<stop stop-color="white"/>
<stop offset="0.489516" stop-color="#EFEFEF"/>
<stop offset="1" stop-color="#C0C0C0"/>
</linearGradient>
</defs>
</svg>
