<svg width="60" height="40" viewBox="0 0 60 40" fill="none" xmlns="http://www.w3.org/2000/svg">
<path d="M33.8765 20C33.8765 31.062 26.2731 40 16.9382 40C7.60339 40 0 31.1504 0 20C0 8.84956 7.60339 0 16.9382 0C26.2731 0 33.8765 8.93805 33.8765 20Z" fill="#464343"/>
<path d="M52.4714 19.9999C52.4714 30.4424 48.7073 38.8495 44.0399 38.8495C39.3725 38.8495 35.6084 30.4424 35.6084 19.9999C35.6084 9.55747 39.3725 1.15039 44.0399 1.15039C48.632 1.15039 52.4714 9.64597 52.4714 19.9999Z" fill="#464343"/>
<path d="M60 20.0003C60 29.2923 58.645 36.903 56.9888 36.903C55.3326 36.903 53.9775 29.2923 53.9775 20.0003C53.9775 10.7083 55.3326 3.09766 56.9888 3.09766C58.7202 3.09766 60 10.7083 60 20.0003Z" fill="#464343"/>
</svg>
